<?xml version="1.0" standalone="no"?>
<!DOCTYPE svg PUBLIC "-//W3C//DTD SVG 20010904//EN"
 "http://www.w3.org/TR/2001/REC-SVG-20010904/DTD/svg10.dtd">
<svg version="1.0" xmlns="http://www.w3.org/2000/svg"
 width="16.000000pt" height="16.000000pt" viewBox="0 0 16.000000 16.000000"
 preserveAspectRatio="xMidYMid meet">
<metadata>
Created by potrace 1.11, written by Peter Selinger 2001-2013
</metadata>
<g transform="translate(0.000000,16.000000) scale(0.013223,-0.013223)"
fill="#000000" stroke="none">
<path d="M0 605 l0 -605 605 0 605 0 0 605 0 605 -605 0 -605 0 0 -605z m138
390 c7 -14 12 -14 45 0 46 19 104 19 141 0 27 -14 34 -14 68 0 48 19 121 19
157 0 48 -24 56 -61 56 -255 l0 -175 -45 0 -45 0 -5 165 c-3 91 -9 171 -13
178 -9 13 -85 16 -104 4 -9 -6 -13 -57 -15 -177 l-3 -170 -47 -3 -48 -3 -1
153 c-1 192 -4 202 -51 206 -75 6 -77 2 -80 -186 l-3 -167 -44 -3 c-28 -2 -47
1 -52 10 -14 22 -11 412 3 426 17 17 75 15 86 -3z m736 -7 c18 -30 -5 -52 -58
-59 -67 -7 -87 -45 -66 -127 27 -108 120 -222 183 -222 45 0 92 32 128 87 58
93 76 208 39 256 -17 22 -25 24 -62 20 -48 -7 -75 15 -57 48 14 27 61 24 109
-6 61 -38 85 -97 70 -174 -23 -125 -85 -224 -159 -257 l-39 -17 -7 -118 c-8
-131 -21 -165 -77 -199 -24 -15 -51 -20 -98 -20 -85 0 -121 21 -152 91 -56
127 -73 154 -101 164 -22 7 -36 5 -64 -10 -54 -30 -77 -64 -64 -99 22 -57 -39
-113 -92 -85 -29 16 -37 28 -37 63 0 35 25 66 54 66 13 1 32 16 49 41 52 75
149 97 211 48 14 -11 41 -59 61 -109 21 -49 45 -96 54 -103 23 -21 91 -28 130
-14 58 21 70 48 78 173 l6 110 -31 13 c-74 31 -166 175 -179 278 -7 66 14 108
75 151 50 35 78 38 96 10z"/>
</g>
</svg>
